<svg xmlns="http://www.w3.org/2000/svg" width="1024" height="1024" viewBox="0 0 1024 1024" version="1.1"><path d="M 479.500 1.128 C 472.350 1.590, 460.425 2.668, 453 3.524 C 445.575 4.379, 432.837 6.200, 424.693 7.569 C 416.549 8.939, 403.949 11.425, 396.693 13.094 C 389.437 14.763, 377.425 17.878, 370 20.015 C 362.575 22.153, 351.100 25.762, 344.500 28.036 C 337.900 30.309, 326.875 34.436, 320 37.208 C 313.125 39.980, 298.950 46.387, 288.500 51.447 C 278.050 56.506, 263.875 63.927, 257 67.937 C 250.125 71.947, 240.225 77.978, 235 81.340 C 229.775 84.701, 220.775 90.821, 215 94.940 C 209.225 99.059, 200.225 105.793, 195 109.903 C 189.775 114.014, 181.900 120.517, 177.500 124.353 C 173.100 128.189, 165.068 135.529, 159.652 140.664 L 149.804 150 173.271 150 L 196.738 150 197.250 153.250 C 197.532 155.037, 211.641 268.202, 228.604 404.727 C 245.567 541.252, 259.750 652.402, 260.121 651.727 C 260.492 651.052, 303.560 538.675, 355.826 402 C 408.093 265.325, 451.162 152.713, 451.535 151.750 C 452.171 150.110, 455.986 150, 512 150 C 568.014 150, 571.829 150.110, 572.465 151.750 C 572.838 152.713, 615.907 265.325, 668.174 402 C 720.440 538.675, 763.506 651.050, 763.876 651.721 C 764.245 652.393, 778.211 543.278, 794.911 409.243 C 811.611 275.209, 825.721 162.047, 826.267 157.772 L 827.259 150 850.379 149.971 L 873.500 149.942 865.500 142.451 C 861.100 138.331, 853 131.001, 847.500 126.164 C 842 121.326, 833.225 113.985, 828 109.850 C 822.775 105.715, 813.567 98.825, 807.537 94.539 C 801.507 90.252, 790.707 83.057, 783.537 78.549 C 776.367 74.041, 766.374 68.011, 761.331 65.148 C 756.288 62.285, 743.913 55.955, 733.831 51.083 C 723.749 46.211, 709.875 39.962, 703 37.196 C 696.125 34.431, 685.100 30.309, 678.500 28.036 C 671.900 25.762, 660.425 22.153, 653 20.015 C 645.575 17.878, 633.563 14.763, 626.307 13.094 C 619.051 11.425, 606.451 8.939, 598.307 7.569 C 590.163 6.200, 577.425 4.391, 570 3.549 C 562.575 2.707, 549.308 1.565, 540.517 1.009 C 531.726 0.454, 517.326 0.065, 508.517 0.144 C 499.708 0.223, 486.650 0.666, 479.500 1.128 M 65.787 260.790 C 62.096 267.230, 55.281 280.375, 50.645 290 C 46.009 299.625, 39.301 314.925, 35.739 324 C 32.177 333.075, 27.652 345.450, 25.683 351.500 C 23.715 357.550, 20.758 367.225, 19.113 373 C 17.468 378.775, 14.758 389.437, 13.091 396.693 C 11.424 403.949, 8.939 416.549, 7.569 424.693 C 6.200 432.837, 4.391 445.575, 3.549 453 C 2.707 460.425, 1.565 473.692, 1.009 482.483 C 0.454 491.274, 0 504.228, 0 511.272 C 0 518.315, 0.469 531.822, 1.041 541.289 C 1.614 550.755, 2.985 565.700, 4.088 574.500 C 5.191 583.300, 7.011 595.675, 8.132 602 C 9.253 608.325, 11.509 619.350, 13.146 626.500 C 14.783 633.650, 17.468 644.225, 19.113 650 C 20.758 655.775, 23.937 666.125, 26.176 673 C 28.416 679.875, 32.940 692.250, 36.228 700.500 C 39.517 708.750, 46.360 724.069, 51.436 734.542 C 56.511 745.015, 64.179 759.640, 68.475 767.042 C 72.772 774.444, 80.327 786.575, 85.263 794 C 90.200 801.425, 97.977 812.450, 102.545 818.500 C 107.114 824.550, 113.844 833.100, 117.501 837.500 C 121.158 841.900, 129.629 851.484, 136.325 858.798 C 143.021 866.112, 153.450 876.721, 159.500 882.373 C 165.550 888.026, 173.875 895.581, 178 899.161 C 182.125 902.742, 190.938 909.908, 197.584 915.086 C 204.230 920.264, 214.130 927.554, 219.584 931.288 C 225.038 935.021, 232.425 940.017, 236 942.389 C 239.575 944.762, 248.556 950.221, 255.958 954.520 C 263.360 958.819, 277.985 966.503, 288.458 971.595 C 298.931 976.688, 314.250 983.526, 322.500 986.791 C 330.750 990.056, 343.125 994.565, 350 996.812 C 356.875 999.058, 367.242 1002.255, 373.039 1003.916 C 378.835 1005.577, 389.410 1008.271, 396.539 1009.904 C 403.667 1011.536, 414.675 1013.789, 421 1014.910 C 427.325 1016.030, 439.700 1017.846, 448.500 1018.944 C 457.300 1020.043, 472.245 1021.405, 481.711 1021.971 C 491.178 1022.537, 504.678 1022.998, 511.711 1022.995 C 518.745 1022.993, 531.925 1022.541, 541 1021.992 C 550.075 1021.443, 563.575 1020.288, 571 1019.426 C 578.425 1018.564, 591.025 1016.746, 599 1015.386 C 606.975 1014.026, 619.333 1011.569, 626.461 1009.925 C 633.590 1008.281, 644.165 1005.577, 649.961 1003.916 C 655.758 1002.255, 666.125 999.058, 673 996.812 C 679.875 994.565, 692.250 990.056, 700.500 986.791 C 708.750 983.526, 724.069 976.688, 734.542 971.595 C 745.015 966.503, 759.485 958.906, 766.698 954.713 C 773.911 950.520, 784.297 944.189, 789.777 940.644 C 795.258 937.099, 803.962 931.161, 809.121 927.449 C 814.279 923.737, 822.550 917.521, 827.500 913.635 C 832.450 909.750, 839.875 903.634, 844 900.045 C 848.125 896.455, 856.900 888.500, 863.500 882.366 C 870.100 876.233, 880.759 865.428, 887.187 858.357 C 893.614 851.286, 901.874 841.900, 905.541 837.500 C 909.208 833.100, 916.263 824.100, 921.219 817.500 C 926.175 810.900, 933.953 799.842, 938.503 792.927 C 943.053 786.012, 950.277 774.330, 954.556 766.969 C 958.835 759.607, 966.503 745.015, 971.595 734.542 C 976.688 724.069, 983.526 708.750, 986.791 700.500 C 990.056 692.250, 994.565 679.875, 996.812 673 C 999.058 666.125, 1002.255 655.758, 1003.916 649.961 C 1005.577 644.165, 1008.281 633.590, 1009.925 626.461 C 1011.569 619.333, 1014.026 606.975, 1015.386 599 C 1016.746 591.025, 1018.564 578.425, 1019.426 571 C 1020.288 563.575, 1021.443 550.075, 1021.992 541 C 1022.541 531.925, 1022.991 518.650, 1022.991 511.500 C 1022.991 504.350, 1022.541 491.075, 1021.992 482 C 1021.443 472.925, 1020.288 459.425, 1019.426 452 C 1018.564 444.575, 1016.746 431.975, 1015.386 424 C 1014.026 416.025, 1011.569 403.667, 1009.925 396.539 C 1008.281 389.410, 1005.577 378.835, 1003.916 373.039 C 1002.255 367.242, 999.058 356.875, 996.812 350 C 994.565 343.125, 990.053 330.750, 986.784 322.500 C 983.515 314.250, 977.028 299.625, 972.370 290 C 967.711 280.375, 961.138 267.587, 957.764 261.582 C 952.833 252.808, 951.481 251.041, 950.875 252.582 C 950.460 253.637, 922.611 392.875, 888.988 562 C 855.366 731.125, 827.615 870.513, 827.320 871.750 L 826.783 874 764.001 874 L 701.219 874 680.786 819.250 C 669.547 789.138, 627.097 675.288, 586.453 566.250 C 545.808 457.212, 512.305 368, 512 368 C 511.695 368, 478.192 457.213, 437.547 566.250 C 396.903 675.288, 354.453 789.138, 343.214 819.250 L 322.781 874 259.961 874 L 197.142 874 196.062 868.750 C 195.468 865.862, 167.526 725.575, 133.968 557 C 100.410 388.425, 72.851 250.180, 72.726 249.790 C 72.602 249.399, 69.479 254.349, 65.787 260.790" stroke="none" fill="#000000" fill-rule="evenodd"/><path d="M 54.379 152.750 C 54.661 153.713, 86.891 315.375, 126 512 C 165.109 708.625, 197.340 870.291, 197.624 871.258 C 198.110 872.913, 201.731 873, 260.253 872.758 L 322.366 872.500 416.500 620 C 478.707 453.140, 511.097 367.500, 512 367.500 C 512.903 367.500, 545.293 453.140, 607.500 620 L 701.634 872.500 763.747 872.758 C 822.269 873, 825.890 872.913, 826.376 871.258 C 826.660 870.291, 858.891 708.625, 898 512 C 937.109 315.375, 969.339 153.713, 969.621 152.750 C 970.107 151.095, 966.286 151, 899.195 151 L 828.256 151 827.682 154.750 C 827.366 156.813, 813.327 269.425, 796.485 405 C 779.642 540.575, 765.653 652.138, 765.398 652.917 C 765.088 653.866, 764.603 654.003, 763.930 653.330 C 763.378 652.778, 719.830 539.640, 667.158 401.913 L 571.391 151.500 512 151.500 L 452.609 151.500 356.842 401.913 C 304.170 539.640, 260.622 652.778, 260.070 653.330 C 259.397 654.003, 258.912 653.866, 258.600 652.917 C 258.343 652.138, 244.362 540.350, 227.529 404.500 C 210.696 268.650, 196.666 156.037, 196.350 154.250 L 195.777 151 124.821 151 C 57.715 151, 53.893 151.095, 54.379 152.750" stroke="none" fill="#ffffff" fill-rule="evenodd"/></svg>